{"title":"The.Karate.Kid.PRE-DVDRiP.R6.MP4.FEEL-FREE","uid":5661077,"size":887229499,"categoryP":"video","categoryS":"movies","magnet":"?xt=urn:btih:ac6a9473e6f8259b7f490069c250bd4610d06384&amp;dn=The.Karate.Kid.PRE-DVDRiP.R6.MP4.FEEL-FREE&amp;tr=udp%3A%2F%2Ftracker.openbittorrent.com%3A80&amp;tr=udp%3A%2F%2Fopen.demonii.com%3A1337&amp;tr=udp%3A%2F%2Ftracker.coppersurfer.tk%3A6969&amp;tr=udp%3A%2F%2Fexodus.desync.com%3A6969","seeders":1,"leechers":1,"uploader":"hiest","files":-1,"time":1277980454,"description":"Genre:Action/Drama/Family/Sport \nLanguage:English\nIMDb:http://www.imdb.com/title/tt1155076/ \nSource:ASIANATIC.Thanks\nEncoder: Tony2\n..........................................\nGeneral\nComplete name : The.Karate.Kid.PRE-DVDRiP.R6.MP4.FEEL-FREE\nFormat : MPEG-4\nFormat profile : Base Media\nCodec ID : isom\nFile size : 845 MiB\nOverall bit rate : 937 Kbps\n...........................................\nVideo\nID : 1\nFormat : AVC\nFormat/Info : Advanced Video Codec\nFormat profile : &lt;a class=&quot;__cf_email__&quot; href=&quot;/cdn-cgi/l/email-protection&quot; data-cfemail=&quot;9ed3fff7f0ded2afb0ad&quot;&gt;[email&amp;#160;protected]&lt;/a&gt;&lt;script cf-hash='f9e31' type=&quot;text/javascript&quot;&gt;\n/* &lt;![CDATA[ */!function(){try{var t=&quot;currentScript&quot;in document?document.currentScript:function(){for(var t=document.getElementsByTagName(&quot;script&quot;),e=t.length;e--;)if(t[e].getAttribute(&quot;cf-hash&quot;))return t[e]}();if(t&amp;&amp;t.previousSibling){var e,r,n,i,c=t.previousSibling,a=c.getAttribute(&quot;data-cfemail&quot;);if(a){for(e=&quot;&quot;,r=parseInt(a.substr(0,2),16),n=2;a.length-n;n+=2)i=parseInt(a.substr(n,2),16)^r,e+=String.fromCharCode(i);e=document.createTextNode(e),c.parentNode.replaceChild(e,c)}}}catch(u){}}();/* ]]&gt; */&lt;/script&gt;\nFormat settings, CABAC : Yes\nFormat settings, ReFrames : 1 frame\nCodec ID : avc1\nCodec ID/Info : Advanced Video Coding\nBit rate mode : Variable\nBit rate : 781 Kbps\nWidth : 720 pixels\nHeight : 304 pixels\nDisplay aspect ratio : 2.35:1\nFrame rate mode : Constant\nFrame rate : 29.970 fps\nResolution : 24 bits\nColorimetry : 4:2:0\nScan type : Progressive\nBits/(Pixel*Frame) : 0.119\nStream size : 704 MiB (83%)\n.............................................\nAudio\nID : 2\nFormat : AAC\nFormat/Info : Advanced Audio Codec\nFormat version : Version 4\nFormat profile : LC\nFormat settings, SBR : No\nCodec ID : 40\nBit rate mode : Variable\nBit rate : 152 Kbps\nChannel(s) : 2 channels\nChannel positions : L R\nSampling rate : 44.1 KHz\nResolution : 16 bits\nStream size : 137 MiB (16%)\n.............................................\nPlot:\nWork causes a single mother to move to China with her young son; in his new home, the boy embraces kung fu, taught to him by a master\n...................................................\nScreens &lt;a href=&quot;\nhttp://postimg.com/image/18000/17213.jpg&quot; rel=&quot;nofollow&quot; target=&quot;_NEW&quot;&gt;\nhttp://postimg.com/image/18000/17213.jpg&lt;/a&gt; &lt;a href=&quot;\nhttp://postimg.com/image/18000/17214.jpg&quot; rel=&quot;nofollow&quot; target=&quot;_NEW&quot;&gt;\nhttp://postimg.com/image/18000/17214.jpg&lt;/a&gt;\n.........................................................","torrent":{"xt":"urn:btih:ac6a9473e6f8259b7f490069c250bd4610d06384","amp;dn":"The.Karate.Kid.PRE-DVDRiP.R6.MP4.FEEL-FREE","amp;tr":["udp%3A%2F%2Ftracker.openbittorrent.com%3A80","udp%3A%2F%2Fopen.demonii.com%3A1337","udp%3A%2F%2Ftracker.coppersurfer.tk%3A6969","udp%3A%2F%2Fexodus.desync.com%3A6969"],"infoHash":"ac6a9473e6f8259b7f490069c250bd4610d06384","infoHashBuffer":{"type":"Buffer","data":[172,106,148,115,230,248,37,155,127,73,0,105,194,80,189,70,16,208,99,132]},"announce":[],"urlList":[]}}